<?xml version="1.0" encoding="UTF-8"?>
<svg id="Layer_2" data-name="Layer 2" xmlns="http://www.w3.org/2000/svg" xmlns:xlink="http://www.w3.org/1999/xlink" viewBox="0 0 122.65 123.05">
  <defs>
    <style>
      .cls-1 {
        fill: url(#linear-gradient-2);
      }

      .cls-2 {
        fill: #fff;
      }

      .cls-3 {
        fill: url(#linear-gradient-3);
      }

      .cls-4 {
        fill: url(#linear-gradient);
      }
    </style>
    <linearGradient id="linear-gradient" x1="61.47" y1="2.95" x2="61.47" y2="54.43" gradientTransform="translate(0 126) scale(1 -1)" gradientUnits="userSpaceOnUse">
      <stop offset="0" stop-color="#6991e8"/>
      <stop offset="1" stop-color="#445d8e"/>
    </linearGradient>
    <linearGradient id="linear-gradient-2" x1="61.39" y1="74.79" x2="61.39" y2="126" gradientTransform="translate(0 126) scale(1 -1)" gradientUnits="userSpaceOnUse">
      <stop offset="0" stop-color="#3a5077"/>
      <stop offset="1" stop-color="#739eff"/>
    </linearGradient>
    <linearGradient id="linear-gradient-3" x1="0" y1="64.33" x2="51.38" y2="64.33" gradientTransform="translate(0 126) scale(1 -1)" gradientUnits="userSpaceOnUse">
      <stop offset="0" stop-color="#6b92eb"/>
      <stop offset="1" stop-color="#445d8e"/>
    </linearGradient>
  </defs>
  <g id="Layer_2-2" data-name="Layer 2">
    <g id="Layer_1-2" data-name="Layer 1-2">
      <path class="cls-2" d="M91.84,36.62c-6.95,5.73-13.61,11.2-20.35,16.76,3.93,5.64,3.64,11.37-.13,16.57,6.79,5.55,13.42,10.96,20.39,16.64,10.09-8.18,20.41-16.55,30.9-25.06-10.53-8.51-20.81-16.82-30.81-24.91Z"/>
      <path class="cls-4" d="M53.15,71.58c-5.46,6.78-10.86,13.5-16.52,20.52,8.06,10.11,16.3,20.43,24.69,30.95,8.49-10.51,16.8-20.79,24.98-30.91-5.64-6.88-11.14-13.6-16.66-20.33-5.66,3.71-11.29,3.66-16.5-.24h.01Z"/>
      <path class="cls-1" d="M69.04,50.85c5.83-6.71,11.48-13.22,17.29-19.91-8.11-10.03-16.42-20.32-25.01-30.94-8.57,10.67-16.85,20.97-24.88,30.96,5.72,6.92,11.22,13.56,16.76,20.25,5.1-3.84,10.76-3.77,15.84-.37h0Z"/>
      <path class="cls-3" d="M50.68,53.79c-6.69-5.86-13.2-11.57-19.81-17.37C20.77,44.64,10.52,52.98,0,61.54c10.52,8.56,20.81,16.92,31.21,25.38,6.12-6.44,12.14-12.65,20.17-16.64-4.06-5.76-4.04-11.38-.7-16.48h0Z"/>
    </g>
  </g>
</svg>