<?xml version="1.0" encoding="UTF-8"?>
<svg id="Layer_2" data-name="Layer 2" xmlns="http://www.w3.org/2000/svg" viewBox="0 0 516.89 82.52">
  <g id="Layer_2-2" data-name="Layer 2">
    <g id="Layer_2-2" data-name="Layer 2-2">
      <g id="Layer_1-2" data-name="Layer 1-2">
        <path d="M61.59,24.56c-4.66,3.84-9.13,7.51-13.65,11.24,2.64,3.78,2.44,7.63-.09,11.11,4.55,3.72,9,7.35,13.67,11.16,6.77-5.49,13.69-11.1,20.72-16.81-7.06-5.71-13.96-11.28-20.66-16.71Z"/>
        <path d="M35.64,48c-3.66,4.55-7.28,9.05-11.08,13.76,5.41,6.78,10.93,13.7,16.56,20.76,5.69-7.05,11.27-13.94,16.75-20.73-3.78-4.61-7.47-9.12-11.17-13.63-3.8,2.49-7.57,2.45-11.07-.16h0Z"/>
        <path d="M46.3,34.1c3.91-4.5,7.7-8.87,11.6-13.35-5.44-6.73-11.01-13.63-16.77-20.75-5.75,7.16-11.3,14.06-16.69,20.76,3.84,4.64,7.52,9.09,11.24,13.58,3.42-2.58,7.22-2.53,10.62-.25h0Z"/>
        <path d="M33.99,36.07c-4.49-3.93-8.85-7.76-13.29-11.65-6.77,5.51-13.65,11.11-20.7,16.85,7.06,5.74,13.96,11.35,20.93,17.02,4.1-4.32,8.14-8.48,13.53-11.16-2.72-3.86-2.71-7.63-.47-11.05h0Z"/>
      </g>
    </g>
    <g>
      <path d="M122.9,64.1h-15.47V20.47h15.6c4.39,0,8.17.87,11.33,2.61,3.17,1.74,5.61,4.24,7.32,7.49,1.71,3.25,2.57,7.15,2.57,11.68s-.86,8.45-2.57,11.72c-1.71,3.27-4.16,5.77-7.35,7.52s-7,2.62-11.43,2.62ZM116.66,56.2h5.86c2.73,0,5.02-.49,6.89-1.46s3.27-2.49,4.22-4.54c.94-2.05,1.42-4.71,1.42-7.96s-.47-5.86-1.42-7.9-2.35-3.55-4.21-4.52c-1.86-.97-4.16-1.45-6.88-1.45h-5.88v27.83Z"/>
      <path d="M162.68,64.74c-3.31,0-6.17-.71-8.58-2.12-2.41-1.41-4.26-3.39-5.57-5.92-1.31-2.54-1.96-5.48-1.96-8.83s.65-6.34,1.96-8.87c1.31-2.54,3.16-4.51,5.57-5.92,2.41-1.41,5.27-2.12,8.58-2.12s6.17.71,8.58,2.12c2.41,1.41,4.26,3.39,5.57,5.92,1.31,2.54,1.96,5.49,1.96,8.87s-.65,6.3-1.96,8.83-3.16,4.51-5.57,5.92c-2.41,1.41-5.27,2.12-8.58,2.12ZM162.73,57.71c1.5,0,2.76-.43,3.77-1.29,1.01-.86,1.77-2.03,2.29-3.53.52-1.49.78-3.19.78-5.09s-.26-3.6-.78-5.09c-.52-1.49-1.28-2.67-2.29-3.54-1.01-.87-2.27-1.3-3.77-1.3s-2.79.43-3.83,1.3c-1.03.87-1.8,2.05-2.32,3.54-.52,1.49-.78,3.19-.78,5.09s.26,3.6.78,5.09c.52,1.49,1.29,2.67,2.32,3.53,1.03.86,2.3,1.29,3.83,1.29Z"/>
      <path d="M196.5,64.74c-3.35,0-6.23-.71-8.64-2.14-2.41-1.43-4.25-3.41-5.54-5.96-1.29-2.54-1.93-5.47-1.93-8.78s.65-6.3,1.95-8.83,3.15-4.52,5.55-5.94c2.4-1.43,5.26-2.14,8.57-2.14,2.86,0,5.36.52,7.5,1.56,2.14,1.04,3.84,2.49,5.09,4.37s1.94,4.08,2.07,6.6h-8.57c-.24-1.63-.88-2.95-1.91-3.95-1.03-1-2.38-1.5-4.04-1.5-1.41,0-2.63.38-3.68,1.14s-1.86,1.86-2.44,3.31-.87,3.2-.87,5.26.29,3.86.86,5.33,1.39,2.58,2.44,3.34c1.05.77,2.28,1.15,3.69,1.15,1.04,0,1.97-.21,2.8-.64s1.52-1.05,2.07-1.86c.55-.82.91-1.8,1.08-2.95h8.57c-.14,2.5-.82,4.7-2.03,6.59-1.21,1.9-2.89,3.38-5.02,4.44-2.13,1.07-4.65,1.6-7.56,1.6Z"/>
      <path d="M234.94,50.17v-18.79h9.08v32.73h-8.71v-5.95h-.34c-.74,1.92-1.96,3.46-3.68,4.62-1.71,1.17-3.8,1.75-6.25,1.75-2.19,0-4.11-.5-5.77-1.49s-2.96-2.41-3.89-4.24c-.93-1.83-1.4-4.03-1.42-6.58v-20.84h9.08v19.22c.01,1.93.53,3.46,1.55,4.58,1.02,1.12,2.39,1.68,4.11,1.68,1.09,0,2.12-.25,3.07-.76.95-.5,1.72-1.25,2.31-2.25.59-.99.88-2.22.86-3.69Z"/>
      <path d="M248.26,64.1V31.38h8.65v5.77h.38c.68-1.92,1.82-3.43,3.41-4.54,1.59-1.11,3.49-1.66,5.71-1.66s4.16.56,5.73,1.67c1.58,1.12,2.63,2.62,3.15,4.53h.34c.67-1.88,1.88-3.38,3.63-4.51,1.75-1.13,3.83-1.69,6.23-1.69,3.05,0,5.54.97,7.45,2.91,1.91,1.94,2.87,4.68,2.87,8.24v22.01h-9.05v-20.22c0-1.82-.48-3.18-1.45-4.09-.97-.91-2.17-1.36-3.62-1.36-1.65,0-2.93.52-3.86,1.57-.92,1.04-1.38,2.42-1.38,4.12v19.99h-8.8v-20.41c0-1.6-.46-2.88-1.38-3.83-.92-.95-2.12-1.43-3.61-1.43-1.01,0-1.91.25-2.72.76-.8.5-1.44,1.21-1.91,2.11-.47.9-.7,1.96-.7,3.16v19.65h-9.08Z"/>
      <path d="M314.9,64.74c-3.37,0-6.26-.68-8.68-2.06s-4.29-3.32-5.59-5.84c-1.31-2.52-1.96-5.51-1.96-8.96s.65-6.32,1.96-8.86c1.31-2.54,3.15-4.52,5.53-5.94,2.38-1.42,5.17-2.13,8.38-2.13,2.16,0,4.17.34,6.04,1.03,1.87.69,3.5,1.72,4.9,3.1,1.4,1.38,2.49,3.11,3.27,5.19.78,2.08,1.17,4.51,1.17,7.3v2.49h-27.64v-5.63h19.09c0-1.31-.29-2.46-.85-3.47-.57-1.01-1.35-1.8-2.35-2.38-1-.58-2.16-.86-3.48-.86s-2.6.32-3.65.95c-1.06.63-1.89,1.48-2.48,2.54s-.9,2.23-.92,3.53v5.35c0,1.62.3,3.02.91,4.2.6,1.18,1.46,2.09,2.57,2.73,1.11.64,2.42.96,3.94.96,1.01,0,1.93-.14,2.77-.43.84-.28,1.56-.71,2.15-1.28.6-.57,1.05-1.26,1.36-2.09l8.39.55c-.43,2.02-1.3,3.77-2.61,5.27-1.31,1.5-3,2.66-5.07,3.49-2.07.83-4.45,1.25-7.15,1.25Z"/>
      <path d="M341.92,45.18v18.92h-9.08V31.38h8.65v5.77h.38c.72-1.9,1.94-3.41,3.64-4.53,1.7-1.11,3.77-1.67,6.2-1.67,2.27,0,4.25.5,5.94,1.49,1.69.99,3,2.41,3.94,4.25.94,1.84,1.41,4.03,1.41,6.57v20.84h-9.08v-19.22c.01-2-.5-3.57-1.53-4.7s-2.46-1.69-4.28-1.69c-1.22,0-2.3.26-3.23.79s-1.65,1.29-2.17,2.29c-.52,1-.79,2.21-.8,3.61Z"/>
      <path d="M384.56,31.38v6.82h-19.71v-6.82h19.71ZM369.32,23.54h9.08v30.51c0,.84.13,1.49.38,1.95s.61.79,1.08.97c.46.18,1,.28,1.61.28.43,0,.85-.04,1.28-.12.43-.08.75-.14.98-.18l1.43,6.75c-.45.14-1.09.31-1.92.5-.82.19-1.83.31-3,.35-2.19.08-4.1-.21-5.74-.87-1.64-.67-2.92-1.7-3.82-3.11s-1.36-3.18-1.34-5.33v-31.7Z"/>
      <path d="M396.79,64.72c-2.09,0-3.95-.37-5.58-1.1s-2.92-1.82-3.87-3.26-1.42-3.24-1.42-5.4c0-1.82.33-3.35,1-4.58.67-1.24,1.58-2.23,2.73-2.98,1.15-.75,2.46-1.32,3.93-1.7,1.47-.38,3.01-.65,4.63-.81,1.9-.2,3.44-.39,4.6-.56,1.16-.18,2.01-.44,2.54-.8.53-.35.79-.88.79-1.58v-.13c0-1.35-.42-2.39-1.27-3.13-.84-.74-2.04-1.11-3.59-1.11-1.63,0-2.93.36-3.9,1.08-.97.72-1.61,1.62-1.92,2.7l-8.4-.68c.43-1.99,1.26-3.71,2.51-5.17,1.25-1.46,2.87-2.58,4.85-3.37,1.98-.79,4.28-1.18,6.89-1.18,1.82,0,3.56.21,5.23.64s3.15,1.09,4.45,1.98,2.33,2.04,3.08,3.44c.75,1.4,1.13,3.07,1.13,5.02v22.07h-8.61v-4.54h-.26c-.53,1.02-1.23,1.92-2.11,2.7-.88.77-1.94,1.38-3.17,1.81-1.24.43-2.66.65-4.28.65ZM399.39,58.46c1.33,0,2.51-.27,3.54-.8,1.02-.53,1.83-1.25,2.41-2.16.58-.91.87-1.94.87-3.09v-3.47c-.28.18-.67.35-1.16.5s-1.04.28-1.65.4c-.61.12-1.22.23-1.83.32-.61.09-1.17.17-1.66.25-1.07.16-2,.4-2.79.75-.8.34-1.41.8-1.85,1.38-.44.58-.66,1.29-.66,2.14,0,1.24.45,2.18,1.35,2.82.9.65,2.05.97,3.44.97Z"/>
      <path d="M436.68,31.38v6.82h-19.71v-6.82h19.71ZM421.45,23.54h9.08v30.51c0,.84.13,1.49.38,1.95s.61.79,1.08.97c.46.18,1,.28,1.61.28.43,0,.85-.04,1.28-.12.43-.08.75-.14.98-.18l1.43,6.75c-.45.14-1.09.31-1.92.5-.82.19-1.83.31-3,.35-2.19.08-4.1-.21-5.74-.87-1.64-.67-2.92-1.7-3.82-3.11s-1.36-3.18-1.34-5.33v-31.7Z"/>
      <path d="M444.14,27.16c-1.35,0-2.5-.45-3.46-1.34-.96-.89-1.44-1.97-1.44-3.24s.48-2.35,1.45-3.25c.97-.9,2.12-1.35,3.45-1.35s2.5.45,3.46,1.34c.96.9,1.44,1.97,1.44,3.24s-.48,2.35-1.44,3.25c-.96.9-2.11,1.35-3.46,1.35ZM439.58,64.1V31.38h9.08v32.73h-9.08Z"/>
      <path d="M467.69,64.74c-3.31,0-6.17-.71-8.58-2.12-2.41-1.41-4.26-3.39-5.57-5.92-1.31-2.54-1.96-5.48-1.96-8.83s.65-6.34,1.96-8.87c1.31-2.54,3.16-4.51,5.57-5.92,2.41-1.41,5.27-2.12,8.58-2.12s6.17.71,8.58,2.12c2.41,1.41,4.26,3.39,5.57,5.92,1.31,2.54,1.96,5.49,1.96,8.87s-.65,6.3-1.96,8.83-3.16,4.51-5.57,5.92c-2.41,1.41-5.27,2.12-8.58,2.12ZM467.73,57.71c1.5,0,2.76-.43,3.77-1.29,1.01-.86,1.77-2.03,2.29-3.53.52-1.49.78-3.19.78-5.09s-.26-3.6-.78-5.09c-.52-1.49-1.28-2.67-2.29-3.54-1.01-.87-2.27-1.3-3.77-1.3s-2.79.43-3.83,1.3c-1.03.87-1.8,2.05-2.32,3.54-.52,1.49-.78,3.19-.78,5.09s.26,3.6.78,5.09c.52,1.49,1.29,2.67,2.32,3.53,1.03.86,2.3,1.29,3.83,1.29Z"/>
      <path d="M495.8,45.18v18.92h-9.08V31.38h8.65v5.77h.38c.72-1.9,1.94-3.41,3.64-4.53,1.7-1.11,3.77-1.67,6.2-1.67,2.27,0,4.25.5,5.94,1.49,1.69.99,3,2.41,3.94,4.25.94,1.84,1.41,4.03,1.41,6.57v20.84h-9.08v-19.22c.01-2-.5-3.57-1.53-4.7s-2.46-1.69-4.28-1.69c-1.22,0-2.3.26-3.23.79s-1.65,1.29-2.17,2.29c-.52,1-.79,2.21-.8,3.61Z"/>
    </g>
  </g>
</svg>